<svg width="30" height="30" viewBox="0 0 30 30" fill="none" xmlns="http://www.w3.org/2000/svg">
<rect width="30" height="30" fill="white"/>
<mask id="path-1-outside-1_73_5" maskUnits="userSpaceOnUse" x="5" y="7" width="20" height="14" fill="black">
<rect fill="white" x="5" y="7" width="20" height="14"/>
<path d="M12.402 11.7102C12.3565 11.2519 12.1615 10.8958 11.8168 10.642C11.4721 10.3883 11.0043 10.2614 10.4134 10.2614C10.0118 10.2614 9.67282 10.3182 9.39631 10.4318C9.11979 10.5417 8.90767 10.6951 8.75994 10.892C8.616 11.089 8.54403 11.3125 8.54403 11.5625C8.53646 11.7708 8.58002 11.9527 8.67472 12.108C8.7732 12.2633 8.90767 12.3977 9.07812 12.5114C9.24858 12.6212 9.44555 12.7178 9.66903 12.8011C9.89252 12.8807 10.1312 12.9489 10.3849 13.0057L11.4304 13.2557C11.938 13.3693 12.4039 13.5208 12.8281 13.7102C13.2524 13.8996 13.6198 14.1326 13.9304 14.4091C14.241 14.6856 14.4815 15.0114 14.652 15.3864C14.8262 15.7614 14.9152 16.1913 14.919 16.6761C14.9152 17.3883 14.7334 18.0057 14.3736 18.5284C14.0175 19.0473 13.5024 19.4508 12.8281 19.7386C12.1577 20.0227 11.349 20.1648 10.402 20.1648C9.46259 20.1648 8.64441 20.0208 7.94744 19.733C7.25426 19.4451 6.71259 19.0189 6.32244 18.4545C5.93608 17.8864 5.73343 17.1837 5.71449 16.3466H8.09517C8.12169 16.7367 8.23343 17.0625 8.4304 17.3239C8.63116 17.5814 8.8982 17.7765 9.23153 17.9091C9.56866 18.0379 9.94934 18.1023 10.3736 18.1023C10.7902 18.1023 11.152 18.0417 11.4588 17.9205C11.7694 17.7992 12.0099 17.6307 12.1804 17.4148C12.3509 17.1989 12.4361 16.9508 12.4361 16.6705C12.4361 16.4091 12.3584 16.1894 12.2031 16.0114C12.0516 15.8333 11.8281 15.6818 11.5327 15.5568C11.241 15.4318 10.883 15.3182 10.4588 15.2159L9.19176 14.8977C8.2107 14.6591 7.43608 14.286 6.8679 13.7784C6.29972 13.2708 6.01752 12.5871 6.02131 11.7273C6.01752 11.0227 6.20502 10.4072 6.58381 9.88068C6.96638 9.35417 7.491 8.94318 8.15767 8.64773C8.82434 8.35227 9.58191 8.20455 10.4304 8.20455C11.294 8.20455 12.0478 8.35227 12.6918 8.64773C13.3395 8.94318 13.8433 9.35417 14.2031 9.88068C14.563 10.4072 14.7486 11.017 14.7599 11.7102H12.402ZM16.5739 20V8.36364H24.2784V10.392H19.0341V13.1648H23.767V15.1932H19.0341V20H16.5739Z"/>
</mask>
<path d="M12.402 11.7102C12.3565 11.2519 12.1615 10.8958 11.8168 10.642C11.4721 10.3883 11.0043 10.2614 10.4134 10.2614C10.0118 10.2614 9.67282 10.3182 9.39631 10.4318C9.11979 10.5417 8.90767 10.6951 8.75994 10.892C8.616 11.089 8.54403 11.3125 8.54403 11.5625C8.53646 11.7708 8.58002 11.9527 8.67472 12.108C8.7732 12.2633 8.90767 12.3977 9.07812 12.5114C9.24858 12.6212 9.44555 12.7178 9.66903 12.8011C9.89252 12.8807 10.1312 12.9489 10.3849 13.0057L11.4304 13.2557C11.938 13.3693 12.4039 13.5208 12.8281 13.7102C13.2524 13.8996 13.6198 14.1326 13.9304 14.4091C14.241 14.6856 14.4815 15.0114 14.652 15.3864C14.8262 15.7614 14.9152 16.1913 14.919 16.6761C14.9152 17.3883 14.7334 18.0057 14.3736 18.5284C14.0175 19.0473 13.5024 19.4508 12.8281 19.7386C12.1577 20.0227 11.349 20.1648 10.402 20.1648C9.46259 20.1648 8.64441 20.0208 7.94744 19.733C7.25426 19.4451 6.71259 19.0189 6.32244 18.4545C5.93608 17.8864 5.73343 17.1837 5.71449 16.3466H8.09517C8.12169 16.7367 8.23343 17.0625 8.4304 17.3239C8.63116 17.5814 8.8982 17.7765 9.23153 17.9091C9.56866 18.0379 9.94934 18.1023 10.3736 18.1023C10.7902 18.1023 11.152 18.0417 11.4588 17.9205C11.7694 17.7992 12.0099 17.6307 12.1804 17.4148C12.3509 17.1989 12.4361 16.9508 12.4361 16.6705C12.4361 16.4091 12.3584 16.1894 12.2031 16.0114C12.0516 15.8333 11.8281 15.6818 11.5327 15.5568C11.241 15.4318 10.883 15.3182 10.4588 15.2159L9.19176 14.8977C8.2107 14.6591 7.43608 14.286 6.8679 13.7784C6.29972 13.2708 6.01752 12.5871 6.02131 11.7273C6.01752 11.0227 6.20502 10.4072 6.58381 9.88068C6.96638 9.35417 7.491 8.94318 8.15767 8.64773C8.82434 8.35227 9.58191 8.20455 10.4304 8.20455C11.294 8.20455 12.0478 8.35227 12.6918 8.64773C13.3395 8.94318 13.8433 9.35417 14.2031 9.88068C14.563 10.4072 14.7486 11.017 14.7599 11.7102H12.402ZM16.5739 20V8.36364H24.2784V10.392H19.0341V13.1648H23.767V15.1932H19.0341V20H16.5739Z" fill="#3C443F"/>
<path d="M12.402 11.7102L11.9044 11.7596L11.9491 12.2102H12.402V11.7102ZM9.39631 10.4318L9.58092 10.8965L9.58636 10.8943L9.39631 10.4318ZM8.75994 10.892L8.35991 10.592L8.35625 10.597L8.75994 10.892ZM8.54403 11.5625L9.0437 11.5807L9.04403 11.5716V11.5625H8.54403ZM8.67472 12.108L8.24775 12.3683L8.25246 12.3757L8.67472 12.108ZM9.07812 12.5114L8.80074 12.9274L8.80727 12.9316L9.07812 12.5114ZM9.66903 12.8011L9.49432 13.2697L9.50137 13.2722L9.66903 12.8011ZM10.3849 13.0057L10.5012 12.5193L10.4942 12.5178L10.3849 13.0057ZM11.4304 13.2557L11.3141 13.742L11.3212 13.7436L11.4304 13.2557ZM12.8281 13.7102L12.6243 14.1668L12.6243 14.1668L12.8281 13.7102ZM13.9304 14.4091L14.2629 14.0356L14.2629 14.0356L13.9304 14.4091ZM14.652 15.3864L14.1968 15.5933L14.1985 15.5971L14.652 15.3864ZM14.919 16.6761L15.4191 16.6788L15.419 16.6722L14.919 16.6761ZM14.3736 18.5284L13.9617 18.2449L13.9613 18.2455L14.3736 18.5284ZM12.8281 19.7386L13.0232 20.199L13.0245 20.1985L12.8281 19.7386ZM7.94744 19.733L7.75567 20.1947L7.75656 20.1951L7.94744 19.733ZM6.32244 18.4545L5.90897 18.7357L5.91115 18.7389L6.32244 18.4545ZM5.71449 16.3466V15.8466H5.20305L5.21462 16.3579L5.71449 16.3466ZM8.09517 16.3466L8.59402 16.3127L8.56234 15.8466H8.09517V16.3466ZM8.4304 17.3239L8.03104 17.6248L8.03603 17.6312L8.4304 17.3239ZM9.23153 17.9091L9.04673 18.3737L9.0531 18.3762L9.23153 17.9091ZM11.4588 17.9205L11.277 17.4547L11.2751 17.4554L11.4588 17.9205ZM12.1804 17.4148L12.5728 17.7246L12.5728 17.7246L12.1804 17.4148ZM12.2031 16.0114L11.8223 16.3354L11.8263 16.34L12.2031 16.0114ZM11.5327 15.5568L11.3357 16.0164L11.3379 16.0173L11.5327 15.5568ZM10.4588 15.2159L10.337 15.7009L10.3416 15.702L10.4588 15.2159ZM9.19176 14.8977L9.31354 14.4128L9.30994 14.4119L9.19176 14.8977ZM6.8679 13.7784L6.53479 14.1513L6.53479 14.1513L6.8679 13.7784ZM6.02131 11.7273L6.52133 11.7295L6.5213 11.7246L6.02131 11.7273ZM6.58381 9.88068L6.17931 9.58677L6.17793 9.58868L6.58381 9.88068ZM12.6918 8.64773L12.4832 9.10218L12.4843 9.10264L12.6918 8.64773ZM14.2031 9.88068L13.7903 10.1628L13.7903 10.1628L14.2031 9.88068ZM14.7599 11.7102V12.2102H15.2682L15.2599 11.702L14.7599 11.7102ZM12.8995 11.6609C12.8413 11.0737 12.5813 10.5841 12.1132 10.2394L11.5203 11.0447C11.7416 11.2076 11.8718 11.4301 11.9044 11.7596L12.8995 11.6609ZM12.1132 10.2394C11.6554 9.90231 11.0712 9.76136 10.4134 9.76136V10.7614C10.9373 10.7614 11.2888 10.8742 11.5203 11.0447L12.1132 10.2394ZM10.4134 9.76136C9.96772 9.76136 9.5599 9.82401 9.20625 9.96935L9.58636 10.8943C9.78574 10.8124 10.056 10.7614 10.4134 10.7614V9.76136ZM9.21171 9.96714C8.86751 10.1039 8.57346 10.3074 8.35994 10.592L9.15994 11.192C9.24188 11.0828 9.37207 10.9795 9.5809 10.8965L9.21171 9.96714ZM8.35625 10.597C8.14809 10.8819 8.04403 11.2093 8.04403 11.5625H9.04403C9.04403 11.4157 9.08392 11.2961 9.16364 11.1871L8.35625 10.597ZM8.04436 11.5443C8.03376 11.8359 8.09493 12.1175 8.24782 12.3683L9.10161 11.8477C9.06511 11.7878 9.03915 11.7058 9.0437 11.5807L8.04436 11.5443ZM8.25246 12.3757C8.39242 12.5964 8.57885 12.7794 8.80077 12.9274L9.35548 12.0953C9.2365 12.016 9.15398 11.9301 9.09697 11.8402L8.25246 12.3757ZM8.80727 12.9316C9.01269 13.064 9.24289 13.1759 9.49434 13.2696L9.84373 12.3326C9.64821 12.2597 9.48447 12.1784 9.34898 12.0911L8.80727 12.9316ZM9.50137 13.2722C9.74569 13.3591 10.004 13.4328 10.2757 13.4936L10.4942 12.5178C10.2583 12.465 10.0393 12.4022 9.8367 12.3301L9.50137 13.2722ZM10.2687 13.492L11.3141 13.742L11.5467 12.7694L10.5012 12.5194L10.2687 13.492ZM11.3212 13.7436C11.8 13.8508 12.2338 13.9925 12.6243 14.1668L13.032 13.2537C12.5739 13.0492 12.0759 12.8878 11.5396 12.7678L11.3212 13.7436ZM12.6243 14.1668C13.0071 14.3377 13.3299 14.5439 13.5979 14.7825L14.2629 14.0356C13.9097 13.7212 13.4977 13.4616 13.032 13.2537L12.6243 14.1668ZM13.5979 14.7825C13.857 15.0132 14.0555 15.2824 14.1968 15.5933L15.1072 15.1795C14.9076 14.7404 14.625 14.3581 14.2629 14.0356L13.5979 14.7825ZM14.1985 15.5971C14.3379 15.897 14.4157 16.2544 14.419 16.68L15.419 16.6722C15.4148 16.1281 15.3145 15.6257 15.1054 15.1757L14.1985 15.5971ZM14.419 16.6735C14.4157 17.298 14.2579 17.8147 13.9617 18.2449L14.7854 18.8119C15.209 18.1967 15.4148 17.4785 15.419 16.6788L14.419 16.6735ZM13.9613 18.2455C13.6673 18.674 13.2334 19.0219 12.6318 19.2788L13.0245 20.1985C13.7714 19.8796 14.3677 19.4207 14.7859 18.8113L13.9613 18.2455ZM12.6331 19.2783C12.0398 19.5296 11.3012 19.6648 10.402 19.6648V20.6648C11.3968 20.6648 12.2755 20.5158 13.0232 20.199L12.6331 19.2783ZM10.402 19.6648C9.51253 19.6648 8.76187 19.5284 8.13832 19.2708L7.75656 20.1951C8.52695 20.5133 9.41266 20.6648 10.402 20.6648V19.6648ZM8.13921 19.2712C7.52607 19.0166 7.06418 18.6482 6.73374 18.1702L5.91115 18.7389C6.36101 19.3896 6.98246 19.8736 7.75567 20.1947L8.13921 19.2712ZM6.73591 18.1734C6.41458 17.7009 6.2316 17.0972 6.21436 16.3353L5.21462 16.3579C5.23526 17.2702 5.45758 18.0719 5.90898 18.7357L6.73591 18.1734ZM5.71449 16.8466H8.09517V15.8466H5.71449V16.8466ZM7.59632 16.3805C7.62811 16.8483 7.76519 17.272 8.03109 17.6248L8.8297 17.0229C8.70167 16.853 8.61526 16.6252 8.59402 16.3127L7.59632 16.3805ZM8.03603 17.6312C8.29672 17.9657 8.63919 18.2116 9.04675 18.3737L9.41632 17.4445C9.15721 17.3414 8.96559 17.1972 8.82476 17.0165L8.03603 17.6312ZM9.0531 18.3762C9.45624 18.5302 9.89885 18.6023 10.3736 18.6023V17.6023C9.99983 17.6023 9.68107 17.5456 9.40997 17.442L9.0531 18.3762ZM10.3736 18.6023C10.8373 18.6023 11.2641 18.535 11.6425 18.3855L11.2751 17.4554C11.0399 17.5483 10.7432 17.6023 10.3736 17.6023V18.6023ZM11.6406 18.3862C12.0165 18.2396 12.3367 18.0237 12.5728 17.7246L11.788 17.105C11.6832 17.2376 11.5224 17.3589 11.277 17.4547L11.6406 18.3862ZM12.5728 17.7246C12.8144 17.4186 12.9361 17.0609 12.9361 16.6705H11.9361C11.9361 16.8406 11.8873 16.9791 11.788 17.105L12.5728 17.7246ZM12.9361 16.6705C12.9361 16.302 12.8233 15.9617 12.5799 15.6827L11.8263 16.34C11.8936 16.4171 11.9361 16.5161 11.9361 16.6705H12.9361ZM12.5839 15.6873C12.3667 15.4321 12.0694 15.241 11.7275 15.0963L11.3379 16.0173C11.5868 16.1226 11.7366 16.2346 11.8224 16.3354L12.5839 15.6873ZM11.7296 15.0972C11.4046 14.958 11.0182 14.8364 10.576 14.7298L10.3416 15.702C10.7479 15.7999 11.0774 15.9057 11.3357 16.0164L11.7296 15.0972ZM10.5806 14.731L9.31354 14.4128L9.06998 15.3827L10.337 15.7009L10.5806 14.731ZM9.30994 14.4119C8.38372 14.1866 7.69123 13.8435 7.201 13.4055L6.53479 14.1513C7.18093 14.7285 8.03769 15.1316 9.07359 15.3836L9.30994 14.4119ZM7.201 13.4055C6.75396 13.0062 6.51805 12.4666 6.5213 11.7295L5.52131 11.7251C5.51698 12.7076 5.84547 13.5355 6.53479 14.1513L7.201 13.4055ZM6.5213 11.7246C6.51803 11.1161 6.67802 10.6059 6.98968 10.1727L6.17793 9.58868C5.73202 10.2085 5.51701 10.9293 5.52131 11.73L6.5213 11.7246ZM6.9883 10.1746C7.3131 9.72759 7.76418 9.36902 8.36026 9.10485L7.95508 8.19061C7.21783 8.51735 6.61967 8.98074 6.17931 9.58677L6.9883 10.1746ZM8.36026 9.10485C8.95354 8.84192 9.64038 8.70455 10.4304 8.70455V7.70455C9.52345 7.70455 8.69514 7.86263 7.95508 8.19061L8.36026 9.10485ZM10.4304 8.70455C11.2375 8.70455 11.9174 8.84257 12.4832 9.10217L12.9003 8.19328C12.1782 7.86198 11.3506 7.70455 10.4304 7.70455V8.70455ZM12.4843 9.10264C13.059 9.3648 13.4877 9.72003 13.7903 10.1628L14.6159 9.59855C14.1989 8.98831 13.62 8.52157 12.8993 8.19282L12.4843 9.10264ZM13.7903 10.1628C14.0901 10.6015 14.2501 11.1142 14.26 11.7184L15.2599 11.702C15.2471 10.9199 15.0358 10.2129 14.6159 9.59855L13.7903 10.1628ZM14.7599 11.2102H12.402V12.2102H14.7599V11.2102ZM16.5739 20H16.0739V20.5H16.5739V20ZM16.5739 8.36364V7.86364H16.0739V8.36364H16.5739ZM24.2784 8.36364H24.7784V7.86364H24.2784V8.36364ZM24.2784 10.392V10.892H24.7784V10.392H24.2784ZM19.0341 10.392V9.89205H18.5341V10.392H19.0341ZM19.0341 13.1648H18.5341V13.6648H19.0341V13.1648ZM23.767 13.1648H24.267V12.6648H23.767V13.1648ZM23.767 15.1932V15.6932H24.267V15.1932H23.767ZM19.0341 15.1932V14.6932H18.5341V15.1932H19.0341ZM19.0341 20V20.5H19.5341V20H19.0341ZM17.0739 20V8.36364H16.0739V20H17.0739ZM16.5739 8.86364H24.2784V7.86364H16.5739V8.86364ZM23.7784 8.36364V10.392H24.7784V8.36364H23.7784ZM24.2784 9.89205H19.0341V10.892H24.2784V9.89205ZM18.5341 10.392V13.1648H19.5341V10.392H18.5341ZM19.0341 13.6648H23.767V12.6648H19.0341V13.6648ZM23.267 13.1648V15.1932H24.267V13.1648H23.267ZM23.767 14.6932H19.0341V15.6932H23.767V14.6932ZM18.5341 15.1932V20H19.5341V15.1932H18.5341ZM19.0341 19.5H16.5739V20.5H19.0341V19.5Z" fill="#3C443F" mask="url(#path-1-outside-1_73_5)"/>
</svg>
