<svg width="50" height="26" viewBox="0 0 80 70" fill="none" xmlns="http://www.w3.org/2000/svg">
<path fill-rule="evenodd" clip-rule="evenodd" d="M54.3021 65.6506C53.3207 65.4926 52.4471 65.444 52.4471 64.9092C52.4471 64.7025 52.5664 64.4842 52.758 64.3388C52.926 64.2046 53.3686 64.156 53.6675 64.156C53.9792 64.156 54.2905 64.314 54.4816 64.5207C54.6009 64.6665 54.7446 64.8975 54.769 65.1406H56.361C56.3251 64.5454 56.0736 63.962 55.6187 63.6338C55.1761 63.3056 54.6014 62.9045 53.8112 62.9045C53.0577 62.9045 52.3154 62.9292 51.801 63.3178C51.2857 63.6941 50.915 64.3257 50.915 64.8732C50.915 65.1892 50.8915 65.5655 51.0112 65.7961C51.1433 66.027 51.5256 66.5015 51.8245 66.6834C52.2436 66.9265 53.2249 67.0237 53.7637 67.1696C54.2063 67.2785 54.7451 67.3033 54.8652 67.753C54.9362 68.02 54.8528 68.2631 54.6138 68.4211C54.3859 68.5787 54.0391 68.6881 53.6559 68.6881C53.2608 68.6881 52.8777 68.5669 52.6861 68.3238C52.5189 68.0929 52.4231 67.8741 52.291 67.5216H50.699C50.735 68.2626 51.1425 68.9919 51.6445 69.4052C52.1354 69.8063 52.7939 70.0004 53.6311 70.0004C54.4697 70.0004 55.1996 69.8545 55.7384 69.4655C56.2643 69.077 56.5517 68.3482 56.5517 67.753C56.5517 67.2425 56.408 66.8414 56.181 66.5258C55.7144 65.9059 54.8768 65.7362 54.3021 65.6506ZM33.5482 69.8067H35.1641V63.0017H33.5482V69.8067ZM33.5482 62.5403H35.1761V60.8998H33.5482V62.5403ZM31.1904 63.9012C30.5921 63.4267 29.8263 63.099 28.9882 63.0747H28.9044C27.049 63.0747 25.5413 64.6057 25.5413 66.4772C25.5413 68.3603 27.049 69.9036 28.9044 69.9036H28.9882C29.8259 69.8918 30.5917 69.5511 31.1788 68.9681L31.1904 69.8072H32.7225V60.9002H31.1904V63.9012ZM29.0002 68.5062H28.9882C28.4584 68.5053 27.9506 68.2912 27.5759 67.9109C27.2013 67.5306 26.9905 67.015 26.9896 66.4772C26.9896 65.3715 27.8871 64.4482 28.9882 64.4482H29.0002C30.0893 64.4482 30.9988 65.3593 30.9988 66.4772C30.9988 67.595 30.0893 68.5062 29.0002 68.5062ZM41.2199 63.8764C40.6221 63.4024 39.8558 63.0742 39.0177 63.0503H38.9339C37.0789 63.0503 35.5588 64.5936 35.5588 66.4646C35.5588 68.3482 37.0789 69.8914 38.9339 69.8914H39.0177C39.8554 69.8671 40.6092 69.5267 41.2083 68.9433V69.782H42.74V60.8881H41.2083L41.2199 63.8764ZM39.0181 68.494C37.917 68.494 37.0075 67.5707 37.0075 66.4529C37.0075 65.3468 37.917 64.436 39.0181 64.436C40.1192 64.436 41.0292 65.3472 41.0292 66.4529C41.0287 67.5707 40.1192 68.494 39.0181 68.494ZM23.3865 63.0017V63.6459C23.0752 63.3056 22.932 63.1966 22.5728 63.0625C22.2495 62.9414 21.8065 62.8316 21.3755 62.8194H21.3041C20.7893 62.8194 20.3347 62.9041 19.9276 63.0742C19.5325 63.2448 19.1614 63.5118 18.8266 63.8764C18.5272 64.1929 18.2882 64.581 18.1086 65.0069C17.9499 65.4339 17.8687 65.8866 17.8691 66.343C17.8691 67.3762 18.2044 68.2388 18.8744 68.9068C19.533 69.5871 20.3706 69.94 21.3759 69.94H21.3879C21.795 69.94 22.2376 69.8185 22.5968 69.6843C22.9555 69.5506 23.2194 69.4412 23.3865 69.1986V69.8185L24.9426 69.8067L24.9306 62.99L23.3865 63.0017ZM21.3879 68.3968H21.3759C21.1149 68.3975 20.8562 68.3458 20.6149 68.2447C20.3735 68.1435 20.1543 67.995 19.9697 67.8076C19.785 67.6202 19.6387 67.3976 19.5391 67.1526C19.4395 66.9076 19.3886 66.645 19.3893 66.3799C19.39 65.8452 19.5995 65.3326 19.9719 64.9546C20.3443 64.5765 20.8493 64.3638 21.3759 64.3631H21.3879C22.477 64.3631 23.3746 65.2743 23.3746 66.3799C23.3739 66.9146 23.1644 67.4272 22.7919 67.8053C22.4195 68.1834 21.9146 68.3961 21.3879 68.3968ZM48.7727 62.9774L48.7842 63.6212C48.4733 63.2934 48.3181 63.1836 47.9709 63.0378C47.5858 62.8998 47.1822 62.8221 46.774 62.8072H46.7022C46.1869 62.8072 45.7324 62.8919 45.3257 63.0503C44.9182 63.2209 44.5475 63.5001 44.2242 63.8526C43.9134 64.1686 43.6739 64.5571 43.5059 64.9951C43.3423 65.4212 43.2571 65.8741 43.2544 66.3313C43.2544 67.3523 43.6016 68.2145 44.2725 68.8951C44.9182 69.5632 45.7683 69.9157 46.774 69.9157C47.1927 69.9157 47.6352 69.8067 47.9825 69.6609C48.3416 69.5267 48.617 69.4174 48.7842 69.1747V69.7946L50.3403 69.7824L50.3168 62.9779H48.7727V62.9774ZM46.774 68.3846C45.6725 68.3725 44.7746 67.473 44.7746 66.3552C44.7746 65.2495 45.6725 64.3505 46.774 64.3383C47.8747 64.3383 48.7727 65.2495 48.7727 66.3552C48.7727 67.4734 47.8747 68.3846 46.774 68.3846ZM57.9051 59.3809C57.8927 59.3809 57.8807 59.3691 57.8807 59.3691C56.839 59.3691 55.9898 60.2317 55.9898 61.2887C55.9898 62.3458 56.839 63.1971 57.8807 63.1971H57.9051C58.9339 63.1845 59.7716 62.3341 59.7716 61.2887C59.7716 60.2434 58.9339 59.393 57.9051 59.3809ZM57.9051 62.8923C57.6975 62.8926 57.492 62.8513 57.3002 62.7709C57.1084 62.6904 56.9341 62.5723 56.7874 62.4233C56.6406 62.2744 56.5242 62.0975 56.4449 61.9028C56.3656 61.7081 56.3248 61.4994 56.3251 61.2887C56.3251 60.4262 57.0306 59.6969 57.9051 59.709C58.7787 59.709 59.4842 60.4257 59.4842 61.3009C59.4842 62.1756 58.7787 62.8923 57.9051 62.8923Z" fill="black"/>
<path fill-rule="evenodd" clip-rule="evenodd" d="M58.4559 61.6038C58.3871 61.5347 58.311 61.4737 58.2289 61.4219C58.4084 61.3971 58.5513 61.3242 58.6355 61.2148C58.7189 61.1301 58.7792 60.9964 58.7792 60.8501C58.7792 60.729 58.7309 60.607 58.683 60.5102C58.621 60.4254 58.5383 60.3584 58.4431 60.3158C58.3477 60.2793 58.1917 60.2676 57.9646 60.2676H57.091V62.3448H57.51V61.47H57.5819C57.6772 61.47 57.7491 61.4822 57.7965 61.4944C57.8449 61.5069 57.8692 61.5308 57.9052 61.5677C57.9052 61.5794 57.9167 61.5794 57.9167 61.592C57.9642 61.6163 58.036 61.7257 58.1438 61.8837L58.4427 62.3448H58.9336L58.6821 61.9441C58.5872 61.7861 58.5034 61.6524 58.4559 61.6038ZM57.9056 61.1427H57.5105V60.6201H57.9056C58.0249 60.6201 58.1087 60.6201 58.1326 60.6322C58.1916 60.6359 58.247 60.6619 58.2879 60.7052C58.3353 60.7412 58.3482 60.8024 58.3482 60.8627C58.3482 60.9231 58.3358 60.9969 58.2998 61.0329C58.2648 61.0576 58.2289 61.0937 58.1921 61.118C58.1446 61.1301 58.0493 61.1301 57.9056 61.1427ZM33.3931 50.1825H19.737C23.8181 52.7463 28.594 54.4475 34.0276 55.5897L33.3931 50.1825ZM43.8061 50.1946L42.992 55.2732C48.4499 54.2526 53.2614 52.649 57.4386 50.1946H43.8061ZM42.2377 50.1703L34.7336 50.182C35.7868 52.4055 37.1278 54.2769 38.6595 56.0633C40.1676 54.2405 41.1729 52.3573 42.2377 50.1703ZM62.4297 46.7925L14.6622 46.7678C13.0702 45.4798 11.9931 44.8117 10.7124 43.0983H66.4385C65.1941 44.484 63.7702 45.7351 62.4297 46.7925ZM69.5502 38.8944L7.81579 38.9188C6.99008 37.7523 6.04421 36.1123 5.45797 34.8121H71.9088C71.2867 36.2699 70.4481 37.6186 69.5502 38.8944ZM25.3737 30.3647L3.8181 30.3769C1.84341 25.7472 0.598649 20.972 0 15.0426C11.1075 17.0473 19.6772 21.677 25.3737 30.3647ZM47.4566 30.4012H29.7306C29.3355 18.8215 32.4955 7.07156 38.5996 0C44.7995 6.88967 48.0074 18.5905 47.4566 30.4012ZM73.7279 30.3769L51.7528 30.389C57.8209 21.7256 66.5343 16.8289 77.8209 15.0912C77.1154 20.8874 75.7983 25.8079 73.7279 30.3769ZM75.7983 4.98222C75.7748 4.97006 75.7509 4.97006 75.7265 4.97006C73.4046 4.97006 71.4898 6.90226 71.4898 9.25945C71.4898 11.6166 73.405 13.5484 75.7265 13.5484H75.7983C78.1211 13.5124 80 11.5923 80 9.25945C80 6.92614 78.1207 5.01825 75.7983 4.98222ZM75.7983 12.8799C73.86 12.8799 72.268 11.2516 72.268 9.28332C72.268 7.33897 73.86 5.69892 75.7983 5.72323C77.7619 5.72323 79.3411 7.3394 79.3411 9.29548C79.3411 11.2759 77.7619 12.8799 75.7983 12.8799Z" fill="black"/>
<path fill-rule="evenodd" clip-rule="evenodd" d="M77.0304 9.97796C76.8824 9.82598 76.718 9.69143 76.5403 9.57685C76.9354 9.51607 77.2459 9.38237 77.4614 9.12712C77.6534 8.92048 77.7612 8.62877 77.7612 8.28886C77.7612 8.0093 77.665 7.75405 77.5456 7.53526C77.4135 7.34078 77.21 7.17104 76.9945 7.11027C76.7798 7.01303 76.4206 6.96484 75.9177 6.96484H74.0029V11.6423H74.9009V9.68624H75.092C75.3076 9.68624 75.4628 9.69797 75.5705 9.73486C75.6424 9.77133 75.7258 9.81995 75.7976 9.89288C75.81 9.90503 75.8344 9.91719 75.8459 9.92934C75.9177 10.0387 76.0849 10.2575 76.3359 10.6222L76.994 11.6428H78.1075L77.5572 10.7437C77.3417 10.3791 77.1505 10.0995 77.0304 9.97796ZM75.7976 8.93307H74.9005V7.77879H75.7976C76.0614 7.77879 76.241 7.77879 76.3005 7.79094C76.4685 7.8031 76.5878 7.88818 76.6596 7.97327C76.7559 8.04576 76.7798 8.19206 76.7798 8.33748C76.7798 8.45903 76.7554 8.60489 76.6956 8.70213C76.6237 8.77506 76.5403 8.84799 76.4206 8.88445C76.3244 8.90876 76.1333 8.92092 75.7976 8.93307Z" fill="black"/>
</svg>
