<svg width="55" height="12" viewBox="0 0 55 12" fill="none" xmlns="http://www.w3.org/2000/svg">
<path fill-rule="evenodd" clip-rule="evenodd" d="M31.9029 6.69871H30.8352C30.7299 6.69297 30.6469 6.60503 30.6456 6.49744V0.887731C30.6569 0.781138 30.7463 0.701247 30.8514 0.703895H31.8451C31.9356 0.706875 32.0131 0.770985 32.0347 0.860585V1.71852H32.0556C32.3552 0.951509 32.7753 0.585938 33.515 0.585938C33.9948 0.585938 34.4632 0.76293 34.7656 1.24657C35.0453 1.69534 35.0453 2.45065 35.0453 2.99333V6.5226C35.0297 6.62555 34.9417 6.70081 34.8397 6.69871H33.7625C33.6658 6.69441 33.5859 6.62025 33.5728 6.5226V3.47686C33.5728 3.42919 33.5732 3.37976 33.5737 3.32922C33.5788 2.7295 33.5854 1.96613 32.9023 1.96613C32.6274 1.97904 32.385 2.15449 32.2822 2.4149C32.1325 2.7573 32.1125 3.0997 32.1125 3.47885V6.49744C32.1084 6.61132 32.0146 6.70081 31.9029 6.69871ZM27.3799 0.593662C28.9701 0.593662 29.8301 1.98643 29.8301 3.75636C29.8301 5.46737 28.8819 6.82439 27.3799 6.82439C25.8201 6.82439 24.9704 5.43162 24.9704 3.69744C24.9704 1.96326 25.8304 0.593662 27.3799 0.593662ZM27.3903 1.73882C26.6004 1.73882 26.5501 2.83565 26.5501 3.52045V3.54307C26.55 4.23692 26.5499 5.66754 27.3799 5.66754C28.2191 5.66754 28.2503 4.48762 28.2503 3.76806C28.2503 3.29601 28.2304 2.72928 28.0901 2.28139C27.9697 1.89452 27.7298 1.73882 27.3903 1.73882ZM7.5846 6.7103H6.51403C6.41472 6.705 6.33411 6.62643 6.3244 6.52547V0.915759C6.32799 0.803317 6.41895 0.714379 6.52921 0.715593H7.52766C7.62995 0.721331 7.71172 0.804642 7.71735 0.909028V1.64117H7.73721C7.99707 0.9322 8.48733 0.602379 9.1473 0.602379C9.80728 0.602379 10.2368 0.9322 10.5374 1.64117C10.738 1.09551 11.2116 0.702792 11.7762 0.613523C12.3407 0.524365 12.9085 0.752669 13.2616 1.21071C13.5529 1.61457 13.5436 2.17711 13.5348 2.70544C13.5334 2.79449 13.5319 2.88288 13.5319 2.96906V6.50803C13.5309 6.56287 13.5086 6.61507 13.4697 6.65303C13.4309 6.69088 13.3789 6.71151 13.3252 6.7103H12.2546C12.1493 6.70467 12.0664 6.61661 12.0649 6.50903V3.5359C12.0649 3.49088 12.0657 3.43283 12.0666 3.36696C12.07 3.0879 12.0753 2.66704 12.0347 2.48552C11.955 2.10826 11.7151 2.00188 11.4051 2.00188C11.1208 2.01082 10.8691 2.19145 10.765 2.46136C10.6628 2.7253 10.6637 3.15035 10.6643 3.46528L10.6644 3.5359V6.50803C10.6634 6.56276 10.6413 6.61474 10.6026 6.65259C10.564 6.69054 10.5123 6.71129 10.4586 6.7103H9.38532C9.28016 6.70412 9.1974 6.61639 9.19563 6.50903V3.5359C9.19563 3.47499 9.19652 3.41132 9.19751 3.34588C9.20601 2.73943 9.2166 1.98842 8.53191 1.98842C7.79117 1.98842 7.79183 2.84315 7.79227 3.48933V3.5359V6.50803C7.79128 6.56287 7.76888 6.61507 7.73004 6.65303C7.6913 6.69088 7.63823 6.71151 7.5846 6.7103ZM4.39759 6.77893C4.47891 6.82561 4.58025 6.81512 4.65076 6.75278L4.65929 6.75476C4.87264 6.56034 5.26142 6.21595 5.48047 6.02936C5.56391 5.95675 5.54874 5.83592 5.48047 5.73915C5.45963 5.70991 5.43867 5.68122 5.41784 5.65275C5.24228 5.41275 5.07557 5.18467 5.07557 4.72652V3.02522C5.07557 2.9706 5.07584 2.91642 5.07611 2.86246V2.86136C5.07935 2.20436 5.08233 1.60321 4.60145 1.14406C4.19182 0.741634 3.51099 0.600392 2.98946 0.600392C1.97011 0.600392 0.832236 0.988255 0.594222 2.27278C0.584358 2.32475 0.595811 2.3786 0.625913 2.42164C0.656015 2.46478 0.70214 2.49347 0.753527 2.50097L1.78331 2.61606C1.88388 2.6005 1.96166 2.51796 1.97296 2.4149C2.06208 1.97286 2.42621 1.75912 2.8349 1.75912C3.05679 1.75912 3.30522 1.84133 3.43608 2.04249C3.57038 2.24453 3.56829 2.51256 3.56642 2.75344C3.5662 2.78125 3.56599 2.80872 3.56599 2.83565V2.97689C3.46861 2.98803 3.36655 2.99874 3.26142 3.00966C2.69604 3.06848 2.04207 3.13656 1.55194 3.35603C0.888181 3.65198 0.414062 4.25446 0.414062 5.14141C0.414062 6.27697 1.11576 6.8447 2.01753 6.8447C2.77895 6.8447 3.19523 6.66185 3.78408 6.05054C3.81246 6.09281 3.83807 6.13176 3.86224 6.1685C4.00271 6.38224 4.09418 6.52139 4.39759 6.77893ZM3.57076 4.14213L3.57073 4.08917V3.85413C2.79602 3.85413 1.97769 4.0234 1.97769 4.95383C1.97769 5.42776 2.2176 5.74687 2.62819 5.74687C2.92973 5.74687 3.19997 5.5573 3.37065 5.24977C3.57146 4.88552 3.57114 4.54434 3.57076 4.14213ZM19.5199 5.73529C19.4991 5.70594 19.4781 5.67725 19.4573 5.64867C19.2817 5.40867 19.1151 5.18081 19.1151 4.72365V3.02136C19.1151 2.96321 19.1154 2.90538 19.1157 2.84801C19.1195 2.19443 19.1228 1.59703 18.6409 1.14009C18.2303 0.737771 17.5495 0.59653 17.029 0.59653C16.0096 0.59653 14.8718 0.983511 14.6328 2.26881C14.6226 2.32111 14.6341 2.3754 14.6644 2.41876C14.6948 2.46213 14.7412 2.49082 14.7931 2.4981L15.8313 2.6122C15.9317 2.59631 16.0094 2.51399 16.021 2.41104C16.1111 1.969 16.4733 1.75526 16.882 1.75526C17.1029 1.75526 17.3561 1.83846 17.4832 2.03962C17.6184 2.24089 17.6164 2.50903 17.6145 2.74991C17.6143 2.77761 17.6141 2.80497 17.6141 2.83178V2.97005C17.5186 2.98097 17.4188 2.99123 17.3159 3.00183C16.7488 3.06031 16.0912 3.12806 15.5999 3.3482C14.9286 3.64425 14.4574 4.24674 14.4574 5.13468C14.4574 6.26914 15.1591 6.83697 16.0608 6.83697C16.8195 6.83697 17.2386 6.65413 17.8265 6.04282C17.8543 6.0842 17.8794 6.12238 17.9031 6.15835C18.0455 6.37485 18.1362 6.51256 18.4409 6.77121C18.5222 6.81755 18.6232 6.80751 18.6941 6.74605C18.9074 6.55261 19.2962 6.20723 19.5152 6.02064C19.6072 5.95388 19.592 5.83592 19.5199 5.73529ZM17.4149 5.24492C17.2452 5.55157 16.974 5.74114 16.6734 5.74114C16.2628 5.74114 16.0229 5.42191 16.0229 4.94897C16.0229 4.01755 16.8412 3.84927 17.6159 3.84927V4.0853V4.12867C17.6162 4.53595 17.6164 4.87868 17.4149 5.24492ZM20.4265 1.69534V0.896449C20.424 0.841718 20.4443 0.788531 20.4825 0.750021C20.5207 0.7114 20.573 0.691206 20.6266 0.694296H24.1474C24.2009 0.69242 24.2528 0.712945 24.2911 0.751124C24.3294 0.789303 24.3508 0.841828 24.3503 0.896449V1.58412C24.3503 1.69921 24.2555 1.85005 24.0857 2.08795L22.2613 4.74395C22.9383 4.72751 23.6542 4.83101 24.2696 5.18401C24.3833 5.2458 24.4558 5.36508 24.4593 5.49639V6.35532C24.4593 6.47328 24.3332 6.60966 24.1996 6.53904C23.0317 5.92674 21.6453 5.92928 20.4796 6.54577C20.3572 6.61253 20.2292 6.47813 20.2292 6.36006V5.54285C20.2181 5.35019 20.2637 5.15852 20.3601 4.99245L22.4738 1.8975H20.6303C20.5767 1.89959 20.5245 1.87918 20.4859 1.841C20.4474 1.80271 20.426 1.75008 20.4265 1.69534ZM39.0355 1.40712C39.3047 1.16503 39.6122 0.971372 39.9449 0.834544C40.2592 0.706655 40.5946 0.641109 40.9329 0.641109C41.2693 0.634709 41.6029 0.703344 41.9106 0.842268C42.2004 0.977772 42.4543 1.18213 42.6512 1.43802C42.8654 1.72161 43.0238 2.04481 43.1176 2.38975C43.2314 2.79857 43.2863 3.22219 43.2808 3.64712C43.2859 4.08111 43.2271 4.51344 43.1063 4.92966C43.0052 5.28277 42.8394 5.61325 42.618 5.90356C42.4123 6.16762 42.1511 6.38114 41.8537 6.52834C41.5412 6.67631 41.1996 6.74947 40.8552 6.74219C40.2115 6.753 39.5884 6.51057 39.1152 6.06511V8.75002C39.1242 8.81325 39.1035 8.87703 39.0593 8.92216C39.015 8.96729 38.9524 8.98848 38.8904 8.97932H38.2267C38.1648 8.98848 38.1022 8.96729 38.058 8.92216C38.0136 8.87703 37.9929 8.81325 38.0019 8.75002V1.04056C37.9933 0.977442 38.0142 0.913881 38.0584 0.868861C38.1026 0.82384 38.1649 0.802545 38.2267 0.811262H38.7207C38.7852 0.805193 38.8494 0.826159 38.8983 0.869414C38.9471 0.91278 38.9765 0.974573 38.9796 1.04056L39.0355 1.40712ZM40.6191 1.55609C40.0746 1.56039 39.5464 1.74544 39.1142 2.08321V5.27493C39.5934 5.64249 40.0874 5.82588 40.5964 5.82522C41.6293 5.82522 42.1457 5.11592 42.1457 3.69744C42.1457 2.27885 41.6369 1.56569 40.6191 1.55609ZM44.6832 1.83846L44.7676 1.80944C45.3017 1.64161 45.8568 1.55366 46.4156 1.54826C46.865 1.54892 47.1796 1.63311 47.3592 1.80072C47.5387 1.96834 47.6284 2.25854 47.6284 2.67123V3.42367C47.166 3.30263 46.691 3.23774 46.2137 3.23024C45.5549 3.22958 45.0309 3.39565 44.6415 3.72834C44.2521 4.06103 44.0574 4.50594 44.0574 5.06307C44.0586 5.58213 44.2167 5.99648 44.5315 6.30588C44.8463 6.6154 45.273 6.77021 45.8116 6.77021C46.1446 6.76878 46.4744 6.70312 46.7835 6.57678C47.1096 6.4469 47.4114 6.26108 47.6759 6.02737L47.7327 6.40552C47.7356 6.46842 47.7636 6.52723 47.8101 6.56839C47.8568 6.60955 47.918 6.6293 47.9793 6.62312H48.4628C48.5247 6.63195 48.587 6.61065 48.6312 6.56563C48.6754 6.52061 48.6962 6.45705 48.6876 6.39394V2.48067C48.6869 1.85391 48.5181 1.3919 48.1812 1.09474C47.8442 0.797468 47.3202 0.648833 46.609 0.648833C46.2552 0.648833 45.902 0.681165 45.5537 0.745496C45.2497 0.795041 44.9522 0.879785 44.6671 0.997965C44.5981 1.0218 44.5363 1.0634 44.4879 1.1189C44.451 1.18699 44.4351 1.26489 44.4423 1.34224V1.64889C44.4423 1.78715 44.4935 1.8559 44.5884 1.8559C44.6207 1.85534 44.6527 1.8495 44.6832 1.83846ZM46.8565 5.76431C46.6086 5.85876 46.3465 5.90886 46.0818 5.91228C45.7898 5.91294 45.5651 5.83493 45.4076 5.67824C45.2503 5.52155 45.1716 5.2981 45.1716 5.00801C45.1709 4.34318 45.5941 4.01082 46.4412 4.01082C46.6419 4.01115 46.8424 4.02472 47.0415 4.05143C47.2398 4.07692 47.4366 4.113 47.6313 4.15968V5.32911C47.396 5.51317 47.1348 5.65992 46.8565 5.76431ZM51.6394 8.77231C51.9049 8.54279 52.1392 8.16453 52.3421 7.63774L54.8132 1.22329C54.854 1.13645 54.8806 1.04332 54.8919 0.947649C54.8919 0.856725 54.8397 0.810379 54.7345 0.810379H54.1058C54.0195 0.801882 53.9327 0.821855 53.8583 0.867427C53.7949 0.939593 53.749 1.0261 53.7246 1.11979L52.2074 5.56414L50.6343 1.11979C50.6098 1.0261 50.564 0.939593 50.5006 0.867427C50.4262 0.821855 50.3395 0.801882 50.2531 0.810379H49.579C49.4746 0.810379 49.4225 0.856725 49.4225 0.947649C49.4333 1.04332 49.4596 1.13645 49.5002 1.22329L51.664 6.67929L51.4508 7.25959C51.3236 7.62649 51.1814 7.87863 51.024 8.0159C50.8345 8.16409 50.5987 8.23725 50.3603 8.22191C50.2589 8.22412 50.1576 8.21639 50.0578 8.19874C50.0023 8.1866 49.9458 8.1791 49.889 8.17645C49.7762 8.17645 49.7202 8.24906 49.7202 8.39416V8.69198C49.7139 8.77408 49.7336 8.85606 49.7762 8.92602C49.8228 8.98163 49.8862 9.02004 49.9564 9.03537C50.1651 9.09154 50.3804 9.11857 50.5964 9.11559C51.0263 9.11625 51.374 9.00183 51.6394 8.77231Z" fill="#232F3E"/>
<path fill-rule="evenodd" clip-rule="evenodd" d="M22.1875 10.2778C22.4313 9.6598 22.9736 8.27475 22.7158 7.93908H22.7176C22.4609 7.60275 21.0195 7.7793 20.3713 7.85864L20.3698 7.85886C20.1726 7.88302 20.1423 7.70802 20.3196 7.58123C21.4707 6.75629 23.3567 6.99221 23.5758 7.27083C23.7948 7.54934 23.5161 9.47795 22.4379 10.3987C22.2719 10.5399 22.1136 10.4644 22.1875 10.2778ZM14.4414 11.2314C16.9486 11.2314 19.8682 10.4238 21.8795 8.91022V8.91309C22.2123 8.65775 21.9268 8.28247 21.5874 8.42945C19.3921 9.374 17.0355 9.86702 14.653 9.88026C11.3474 9.88026 8.15002 8.95569 5.56319 7.42068C5.33656 7.28628 5.16777 7.52319 5.35742 7.69632C7.84778 9.98818 11.0874 11.2489 14.4414 11.2314Z" fill="#FF9900"/>
</svg>
