<svg width="50" height="26" viewBox="0 0 70 26" fill="none" xmlns="http://www.w3.org/2000/svg">
<path d="M70.0003 0.75L18.7894 22.555C14.5428 24.3536 10.9766 25.2529 8.09109 25.2529C4.82442 25.2529 2.45512 24.1086 0.983175 21.82C0.0595638 20.35 -0.212658 18.4853 0.166508 16.2258C0.547619 13.9664 1.55484 11.5572 3.18818 8.99833C4.54929 6.9275 6.78248 4.20528 9.88776 0.831666C8.83311 2.48973 8.06043 4.31105 7.60109 6.22167C6.78442 9.70611 7.51943 12.265 9.80609 13.8983C10.895 14.6606 12.3922 15.0417 14.2978 15.0417C15.8203 15.0417 17.5353 14.7967 19.4428 14.3067L70.0003 0.75Z" fill="#0FA958"/>
</svg>
