<svg width="188" height="112" viewBox="0 0 188 112" fill="none" xmlns="http://www.w3.org/2000/svg">
<path fill-rule="evenodd" clip-rule="evenodd" d="M170.727 81.2731V82.2771H176.867L176.756 60.0021L181.613 82.2771H187.922V37.5011H181.779L181.836 59.7231L177.035 37.5011H170.727V81.2731ZM104.121 81.2731V82.2771H110.932C112.081 82.3407 113.233 82.2085 114.338 81.8861C115.287 81.6631 116.18 81.1591 116.793 80.3781C116.961 80.2101 117.129 80.0441 117.24 79.8191H117.297C117.86 78.9175 118.292 77.9404 118.58 76.9171C119.25 74.4051 119.641 71.8371 119.865 69.2691V69.2121C120.098 63.539 120.135 57.8597 119.976 52.1841C119.976 50.0061 119.808 47.7731 119.361 45.5961C119.138 44.1441 118.691 42.6931 118.078 41.2971C117.576 40.1801 116.793 39.1751 115.732 38.4491C115.677 38.3931 115.621 38.3371 115.566 38.3371H115.509C115.118 38.0581 114.671 37.8911 114.169 37.7791C113.554 37.6121 112.886 37.5001 112.271 37.5001H104.121V81.2731ZM109.926 73.9591V45.7641C110.598 45.7641 111.268 45.7641 111.938 45.8761C112.104 45.8761 112.272 45.9321 112.383 45.9881H112.44C112.608 46.0991 112.774 46.2671 112.887 46.4351C112.942 46.4911 112.942 46.5471 112.998 46.6581C113.164 47.1041 113.332 47.5521 113.443 47.9981C113.722 48.9471 113.834 49.9521 113.89 50.9571C114.169 55.3121 114.226 59.6661 114.113 64.0221C114.113 65.8641 114.002 67.7061 113.834 69.5491C113.723 70.7211 113.443 71.8381 113.109 72.9531C113.052 73.1211 112.941 73.2891 112.886 73.4001H112.829C112.772 73.5681 112.606 73.6791 112.493 73.7341H112.438C112.27 73.8471 112.047 73.9021 111.879 73.9021H111.488L109.926 73.9591ZM65.262 81.2731V82.2771H70.789V63.5171C71.459 63.5171 72.073 63.5741 72.687 63.6851H72.743C72.91 63.6851 73.077 63.7421 73.245 63.7961C73.524 63.9091 73.691 64.0751 73.915 64.3001C74.138 64.6911 74.361 65.1361 74.417 65.5831C74.585 66.3101 74.641 67.0911 74.696 67.8171L74.808 75.8561C74.808 77.7541 74.92 79.5961 75.143 81.4381L75.255 82.2761H82.289L81.508 80.7141C81.173 80.0441 80.894 79.3741 80.782 78.5911C80.67 77.7551 80.559 76.9171 80.559 76.0791L80.336 66.8111C80.336 65.4711 80.224 64.0751 80.001 62.7911C79.8285 61.6881 79.4083 60.6384 78.772 59.7211L78.716 59.6641C78.5778 59.47 78.4081 59.3003 78.214 59.1621C78.325 59.0511 78.437 58.9371 78.493 58.8261C79.162 57.8771 79.665 56.8161 79.889 55.6441C80.503 52.2381 80.615 48.7771 80.168 45.3711C80.0695 44.0669 79.7679 42.7861 79.274 41.5751C78.883 40.4581 78.213 39.5091 77.32 38.7281L77.264 38.6721C76.315 38.0021 75.142 37.5551 73.914 37.4991H65.26V81.2731H65.262ZM70.79 55.5901V45.4851H72.074C72.521 45.4851 72.911 45.5411 73.358 45.7081C73.582 45.8201 73.805 45.9321 73.972 46.1551C73.972 46.1551 73.972 46.2111 74.028 46.2111V46.2671C74.084 46.3231 74.084 46.3781 74.14 46.4341C74.363 46.8811 74.531 47.3831 74.587 47.8301C74.81 49.6721 74.754 51.5151 74.531 53.3011C74.475 53.8041 74.308 54.2501 74.14 54.6971C74.028 54.9201 73.861 55.0881 73.693 55.2551C73.341 55.425 72.9643 55.5381 72.577 55.5901H70.79ZM33.439 59.8891C33.383 62.4571 33.439 64.9711 33.551 67.5391C33.607 69.5491 33.774 71.5591 33.997 73.5681V73.6231C34.221 75.5211 34.723 77.4201 35.449 79.2621C35.84 80.3241 36.51 81.2741 37.347 82.1101C37.514 82.2781 37.738 82.3891 37.905 82.5571H37.961C38.352 82.8361 38.798 83.0041 39.245 83.1161C40.194 83.3391 41.143 83.3951 42.093 83.1711C42.6608 83.0507 43.2068 82.844 43.712 82.5581V82.5001H43.768C44.6066 81.8961 45.2788 81.0897 45.722 80.1561C45.834 79.9331 46.001 79.7091 46.057 79.4861C46.894 77.5311 47.453 75.4101 47.62 73.2891C48.179 66.3651 48.346 59.4431 48.067 52.5761C48.0106 50.3358 47.8431 48.0997 47.565 45.8761C47.342 44.0341 46.839 42.1911 46.169 40.4601C45.7223 39.4021 45.0563 38.4508 44.215 37.6691C43.991 37.5011 43.824 37.3341 43.656 37.2221L43.6 37.1661C43.1969 36.941 42.7649 36.7721 42.316 36.6641C41.3802 36.4401 40.4048 36.4401 39.469 36.6641C38.9009 36.7842 38.3548 36.9913 37.85 37.2781V37.3341H37.794C37.012 37.9481 36.342 38.7861 35.84 39.6791L35.505 40.3491C34.7296 42.2226 34.222 44.196 33.997 46.2111C33.551 50.7331 33.328 55.3121 33.439 59.8891ZM38.799 59.9451V59.8881C38.799 57.1541 38.799 54.3621 38.91 51.6261C38.91 50.1751 39.078 48.7791 39.301 47.3831V47.3271C39.364 46.7674 39.5145 46.2211 39.747 45.7081C39.859 45.4851 39.971 45.2621 40.194 45.0941L40.306 44.9831C40.585 44.8161 40.976 44.8161 41.311 44.9831C41.311 45.0391 41.367 45.0391 41.423 45.0941C41.479 45.1501 41.59 45.2061 41.646 45.2621C41.869 45.5971 42.037 45.9321 42.093 46.3231C42.372 47.3281 42.484 48.3331 42.595 49.3381C42.818 54.8101 42.874 60.2821 42.762 65.8091V65.8641C42.7707 67.992 42.6401 70.1182 42.371 72.2291C42.3084 72.8423 42.1582 73.4435 41.925 74.0141C41.813 74.2391 41.702 74.4611 41.478 74.6291C41.478 74.6861 41.366 74.7401 41.311 74.7971C41.032 74.9081 40.641 74.9081 40.362 74.7401C40.306 74.7401 40.25 74.6851 40.25 74.6851H40.194C40.1254 74.6206 40.0689 74.5444 40.027 74.4601C39.804 74.1811 39.636 73.7901 39.525 73.3991C39.302 72.5061 39.134 71.6121 39.079 70.6631C38.855 67.0921 38.743 63.5181 38.799 59.9451ZM1.78398 66.7561H0.833984V72.4511C0.833984 74.1271 1.00198 75.8011 1.39298 77.4201C1.67893 78.5953 2.17014 79.7107 2.84398 80.7151C3.45798 81.7191 4.46298 82.5001 5.57998 82.8911C7.14298 83.4501 8.92998 83.4501 10.493 82.8361C11.442 82.4451 12.335 81.8301 12.95 81.0491C13.8789 79.7936 14.5092 78.3428 14.793 76.8071C15.0148 75.6475 15.127 74.4697 15.128 73.2891L15.184 38.5061V37.5011H8.53998V66.0851C8.59598 68.4871 8.53998 70.8881 8.48398 73.3431C8.48398 73.7341 8.42798 74.1811 8.31698 74.6281C8.31698 74.7391 8.26098 74.8511 8.20498 74.9621C8.14898 75.0191 8.14898 75.0751 8.09298 75.0751C8.04127 75.1232 7.97605 75.1542 7.90613 75.1641C7.83621 75.1739 7.76495 75.162 7.70198 75.1301L7.59098 75.0751C7.52316 74.9899 7.467 74.8961 7.42398 74.7961L7.25698 74.2921C7.20098 73.9011 7.14498 73.5111 7.14498 73.1201V66.7551L1.78398 66.7561Z" fill="white"/>
<path fill-rule="evenodd" clip-rule="evenodd" d="M67.7186 69.1023C66.8553 70.5332 65.6454 71.7235 64.2006 72.5634C63.8096 72.8424 63.3076 72.9544 62.8606 72.9544C62.2466 72.9544 61.6886 73.0114 61.0746 73.0674C60.5716 73.1224 60.1246 73.2904 59.7346 73.6244L59.4556 74.0154V74.1833C59.4556 74.2403 59.5116 74.2943 59.5666 74.3513C59.6216 74.4083 59.7346 74.4623 59.9016 74.4623C60.2926 74.5193 60.7956 74.5193 61.2416 74.5193C61.6886 74.5193 62.1356 74.5193 62.5816 74.5743C62.6936 74.5743 62.8056 74.6313 62.9166 74.6873L62.9726 74.7423C63.0286 74.7993 63.0286 74.8533 63.0286 74.8533C63.0286 75.0213 63.0846 75.2444 63.2516 75.3554C63.4756 75.5804 63.7546 75.6914 64.0336 75.8024L66.7136 76.7514C67.1046 76.9194 67.4396 77.0873 67.7186 77.3663C68.0536 76.7513 68.6126 76.3044 69.2256 76.1374C69.8956 76.0264 70.5656 76.0264 71.2356 76.1924C72.1286 76.3604 73.0216 76.5284 73.9706 76.6394V74.5723C73.8327 74.625 73.6838 74.6425 73.5375 74.6231C73.3912 74.6037 73.252 74.5481 73.1326 74.4613C72.8696 74.2657 72.6745 73.9926 72.5746 73.6804C72.296 72.9502 72.2376 72.1544 72.4066 71.3913C72.4626 70.8893 72.6306 70.4424 72.9086 70.1064C73.1316 69.7724 73.5786 69.6614 73.9696 69.7724V67.3714L74.3046 67.0354H75.3096C76.2362 66.0986 77.2049 65.2043 78.2126 64.3554C79.2736 63.5744 80.1106 62.5684 80.8366 61.5074C80.7246 61.2844 80.6686 61.0623 80.7246 60.8373C80.8366 60.0563 81.1716 59.3864 81.6736 58.7734C81.9526 58.3824 82.3436 57.9923 82.7906 57.7123C82.9016 57.6553 83.0696 57.5993 83.2366 57.5443C83.4606 57.4873 83.6276 57.5443 83.7956 57.7123C84.9827 58.8973 85.864 60.3531 86.3636 61.9544C86.871 63.2575 87.2632 64.6027 87.5356 65.9743C87.5356 66.1423 87.4796 66.3653 87.4246 66.4763C87.2006 66.7013 87.0336 66.9234 86.7546 67.0354L85.1916 67.8734C84.9502 68.0149 84.7411 68.2053 84.5776 68.4324C84.4666 68.5434 84.4666 68.6553 84.4106 68.8233C84.3515 69.9263 84.24 71.0259 84.0766 72.1183C83.9668 72.8231 83.6564 73.4813 83.1826 74.0144C82.9577 74.219 82.6926 74.3745 82.4041 74.4708C82.1157 74.567 81.8103 74.602 81.5076 74.5733C80.0006 76.8073 77.8226 78.4814 75.3106 79.4304C74.9698 80.6562 74.3157 81.7721 73.4126 82.6684C71.3476 84.5664 69.0026 86.1294 66.4336 87.2464C60.9626 89.7034 55.9936 93.3323 51.9176 97.7993C51.1356 98.7483 50.1866 99.5844 49.1816 100.311C48.7547 100.527 48.3053 100.696 47.8416 100.813H47.6176C47.5056 100.758 47.3946 100.645 47.2836 100.534C47.0127 100.276 46.7863 99.9738 46.6136 99.6414C46.5016 99.5304 46.4466 99.4183 46.3906 99.3053H46.2786C46.2226 99.3053 46.2226 99.3054 46.2226 99.3624L46.1666 99.4194C46.0556 101.093 45.3856 102.601 44.3246 103.829C43.7656 104.388 43.0406 104.778 42.2586 104.89L38.6296 105.337C37.9454 105.45 37.2849 105.676 36.6756 106.007C36.3464 106.197 36.0774 106.476 35.8996 106.812C35.7218 107.147 35.6424 107.526 35.6706 107.905C35.6937 108.647 35.9408 109.363 36.3794 109.961C36.818 110.559 37.4275 111.011 38.1276 111.255C39.6906 111.925 41.4776 112.036 43.0966 111.589C44.9921 111.256 46.8095 110.575 48.4566 109.579C49.2376 109.02 49.9076 108.35 50.4106 107.513C52.0296 105.281 54.3746 103.661 57.0546 102.992C58.0036 102.658 58.8966 102.154 59.6226 101.484C60.8516 100.369 62.1906 99.3634 63.5306 98.4144C63.9216 98.1914 64.3686 97.9673 64.7596 97.8013C67.9862 96.3531 71.0545 94.5754 73.9156 92.4964C76.0632 90.9702 78.4118 89.7489 80.8946 88.8674C83.2946 87.6954 85.5836 86.4104 87.8736 85.0154C89.7827 83.8445 92.002 83.28 94.2386 83.3964C95.6896 83.6754 97.0856 84.1214 98.4256 84.7914C102.614 86.8014 107.024 88.4774 111.49 89.7054C115.007 90.3253 118.31 91.8232 121.094 94.0603C125 97.2963 129.188 100.144 133.711 102.544C136.965 104.288 139.555 107.055 141.08 110.417C141.191 110.808 141.416 111.142 141.75 111.366C142.084 111.645 142.531 111.7 142.922 111.589C143.537 111.421 144.151 111.142 144.652 110.751C145.992 109.69 147.332 108.741 148.673 107.792C150.476 106.815 152.161 105.635 153.696 104.274C154.255 103.717 154.757 103.159 155.204 102.489C155.427 102.264 155.538 101.985 155.651 101.708C155.749 101.519 155.769 101.298 155.706 101.093C155.651 100.925 155.538 100.759 155.372 100.702C155.068 100.519 154.72 100.422 154.366 100.423C152.97 100.423 151.632 100.814 150.403 101.54C150.176 101.656 149.969 101.806 149.788 101.985C149.637 102.148 149.443 102.265 149.229 102.321C148.336 102.544 147.444 102.544 146.549 102.264C146.205 102.153 145.884 101.984 145.6 101.762C145.434 101.651 145.321 101.483 145.209 101.26V100.924C145.266 100.479 145.32 99.9754 145.377 99.5294V99.2504C145.377 99.1934 145.32 99.1394 145.32 99.0824C145.265 99.0824 145.265 99.0273 145.209 99.0273H145.1C145.045 99.0823 144.932 99.1383 144.877 99.1933C144.766 99.2503 144.652 99.3614 144.541 99.4724C143.982 99.9744 143.312 100.31 142.531 100.31C141.806 100.31 141.08 100.087 140.521 99.5833C140.353 99.4723 140.242 99.3604 140.187 99.1924C139.517 98.0774 138.734 97.0713 137.73 96.2903L129.578 89.4783C127.793 88.3633 126.062 87.1343 124.387 85.9063C123.94 85.4593 123.494 85.1254 123.047 84.7894C122.098 84.2304 121.149 83.8403 120.088 83.4493C119.419 83.2267 118.795 82.8867 118.246 82.4454C117.576 81.8304 117.297 80.9943 117.408 80.0993C116.57 79.8203 115.732 79.4864 114.951 79.0384C112.547 77.7978 110.25 76.3599 108.084 74.7393C107.916 74.6283 107.75 74.4604 107.693 74.2374C107.476 73.7526 107.307 73.2475 107.191 72.7293C107.09 72.182 106.901 71.6545 106.632 71.1674C106.464 70.7764 106.073 70.5524 105.683 70.4404L105.07 70.2724C104.511 70.0494 104.009 69.5473 103.73 68.9893C103.505 68.3743 103.394 67.7044 103.451 67.0914C103.617 65.6954 103.896 64.3554 104.176 63.0714C104.735 58.7724 104.01 54.4174 102.055 50.5654C101.759 50.0446 101.552 49.4786 101.442 48.8904C101.274 47.2154 101.442 45.4293 101.944 43.8093C102.678 41.5614 103.164 39.24 103.395 36.8864C103.563 34.4304 104.233 32.0854 105.293 29.8524C105.684 29.2384 105.963 28.5124 106.186 27.7864C106.69 25.6644 106.969 23.5434 106.969 21.4214C106.912 19.0214 107.303 16.6754 108.141 14.4984C108.252 14.2754 108.364 14.0514 108.532 13.8844C108.901 13.6201 109.319 13.4306 109.761 13.3264C110.486 13.1594 111.212 12.8794 111.825 12.4894C113.278 11.3164 114.171 9.58635 114.227 7.74335C114.227 5.84535 113.444 4.05835 111.993 2.88635C111.056 1.88703 109.818 1.22087 108.468 0.989118C107.118 0.757364 105.729 0.972684 104.513 1.60235C102.113 3.16535 100.939 5.95635 101.443 8.74835C101.834 10.1444 102.279 11.4844 102.894 12.8244C103.453 13.9964 103.675 15.2814 103.619 16.5644C103.402 18.8525 102.778 21.0835 101.777 23.1524C101.05 24.7154 100.494 26.3344 100.215 28.0094C99.8786 30.2424 99.3766 32.4204 98.6506 34.4864C98.2596 35.7704 97.4216 36.8314 96.3066 37.5574C95.9156 37.8364 95.4116 37.8363 94.9666 37.6133C94.5488 37.4245 94.1699 37.1593 93.8496 36.8314L91.5606 34.7094C90.8898 34.1392 90.0399 33.8231 89.1596 33.8164C88.0473 33.9045 86.9703 34.2474 86.0118 34.8186C85.0534 35.3898 84.2393 36.174 83.6326 37.1104C82.9626 38.0034 82.8506 39.1764 83.2416 40.2364L84.5816 42.9164C84.9726 43.5304 85.1956 44.2564 85.3076 45.0374C85.3636 45.3724 85.2516 45.7074 85.0846 46.0424C84.8589 46.3723 84.5221 46.6101 84.1356 46.7123C83.5216 46.9363 82.8516 46.9913 82.2376 46.9913C80.3956 49.5593 78.7766 52.2393 77.4366 55.0863C76.6463 56.439 75.7501 57.7271 74.7566 58.9384C73.2496 61.1724 71.8536 63.5164 70.5126 65.8624C69.7286 67.0924 68.8356 68.1523 67.7186 69.1023Z" fill="#C1252B"/>
<path fill-rule="evenodd" clip-rule="evenodd" d="M137.674 81.106L137.562 82.278H143.48L144.541 71.56H147.947L149.008 82.278H155.205L149.846 37.502H142.811L137.674 81.106Z" fill="white"/>
<path fill-rule="evenodd" clip-rule="evenodd" d="M60.2926 61.7321L57.0546 53.5801H55.3236L52.1416 61.7321H53.8716L54.5416 59.8881H57.8356L58.5056 61.7321H60.2926ZM57.2786 58.4941H55.0456L56.1626 55.4791L57.2786 58.4941ZM93.0096 62.0661H94.6286V53.9161H93.0096V62.0661ZM126.898 62.9041H128.574V59.5541H128.908C129.133 59.4971 129.355 59.5541 129.578 59.5541C129.725 59.5949 129.86 59.6715 129.971 59.7771C130.137 59.8341 130.248 60.0021 130.362 60.1131C130.641 60.4471 130.864 60.7831 131.087 61.1741L132.261 62.9041H134.271L133.265 61.3421C133.097 61.0631 132.874 60.7831 132.706 60.5041C132.378 60.0164 131.938 59.6145 131.423 59.3321C131.646 59.3321 131.868 59.2751 132.036 59.1641C132.454 59.0643 132.827 58.8287 133.097 58.4941C133.433 58.1031 133.601 57.5991 133.601 57.0431C133.601 56.9321 133.601 56.7641 133.544 56.6521C133.487 55.9251 132.985 55.3111 132.315 55.0321C132.131 54.9186 131.918 54.8606 131.702 54.8651C131.255 54.8091 130.807 54.7531 130.362 54.8091H126.899V62.9041H126.898ZM128.574 58.2151V56.1491H130.752C130.863 56.1491 130.975 56.2061 131.031 56.2061H131.197C131.316 56.2373 131.427 56.2932 131.524 56.3702C131.62 56.4472 131.699 56.5436 131.756 56.6531C131.867 56.8191 131.867 56.9871 131.867 57.1551V57.3781C131.84 57.5582 131.763 57.727 131.644 57.8652C131.526 58.0034 131.371 58.1053 131.197 58.1591C131.086 58.1591 130.974 58.1591 130.863 58.2161H128.574V58.2151Z" fill="#EFEFF0"/>
<path fill-rule="evenodd" clip-rule="evenodd" d="M145.436 63.0723H147.109L146.271 54.6973L145.436 63.0723Z" fill="white"/>
</svg>
