<svg width="377" height="187" viewBox="0 0 377 187" fill="none" xmlns="http://www.w3.org/2000/svg">
<path d="M36.452 132.192C35.8037 130.649 34.7693 129.619 33.3489 129.099C31.9384 128.561 30.1861 128.624 28.0919 129.289C26.7054 129.728 25.6073 130.275 24.7975 130.93C23.9878 131.584 23.4526 132.302 23.192 133.084C22.9268 133.852 22.9153 134.642 23.1574 135.456C23.3392 136.129 23.6547 136.673 24.1039 137.087C24.5676 137.496 25.1428 137.806 25.8298 138.018C26.5266 138.21 27.3252 138.322 28.2256 138.354C29.126 138.387 30.116 138.351 31.1957 138.247L35.2833 137.904C37.6298 137.684 39.7666 137.706 41.6939 137.969C43.6356 138.227 45.351 138.724 46.8401 139.46C48.3437 140.191 49.6183 141.177 50.6639 142.419C51.7096 143.661 52.5214 145.168 53.0993 146.94C53.9736 149.747 54.0287 152.376 53.2646 154.828C52.5004 157.279 50.9736 159.457 48.6841 161.359C46.409 163.257 43.4229 164.792 39.7256 165.965C36.0139 167.142 32.6025 167.613 29.4912 167.375C26.38 167.138 23.6993 166.129 21.4492 164.347C19.1991 162.565 17.5026 159.948 16.3598 156.496L26.6283 153.239C27.1685 154.641 27.9292 155.711 28.9103 156.449C29.8915 157.187 31.0521 157.613 32.3921 157.729C33.7466 157.84 35.2109 157.645 36.7851 157.146C38.2294 156.688 39.3951 156.103 40.2824 155.393C41.1841 154.678 41.7994 153.886 42.1284 153.019C42.4573 152.152 42.4869 151.268 42.2174 150.368C41.9372 149.535 41.4505 148.903 40.7572 148.471C40.0593 148.025 39.1145 147.752 37.9227 147.653C36.7409 147.535 35.2816 147.545 33.545 147.683L28.5654 148.07C24.4443 148.408 20.9674 147.945 18.1346 146.682C15.2974 145.404 13.3522 143.08 12.2993 139.711C11.4144 136.971 11.3882 134.333 12.2207 131.796C13.0532 129.259 14.6004 126.995 16.8624 125.006C19.1245 123.017 21.938 121.489 25.3031 120.421C28.7404 119.331 31.9082 118.97 34.8067 119.338C37.7151 119.687 40.2018 120.687 42.267 122.337C44.3322 123.986 45.8167 126.186 46.7206 128.935L36.452 132.192ZM62.597 158.09L48.5238 113.723L59.2473 110.322L64.8958 128.129L82.3783 122.584L76.7298 104.777L87.4316 101.382L101.505 145.749L90.8029 149.143L85.1475 131.314L67.6651 136.86L73.3204 154.689L62.597 158.09ZM143.07 108.149C144.619 113.03 144.992 117.466 144.191 121.455C143.391 125.445 141.666 128.829 139.019 131.608C136.386 134.382 133.084 136.4 129.112 137.659C125.126 138.924 121.256 139.174 117.5 138.41C113.745 137.646 110.393 135.872 107.443 133.088C104.504 130.285 102.262 126.45 100.718 121.583C99.1697 116.701 98.7887 112.268 99.5752 108.283C100.376 104.294 102.093 100.912 104.726 98.1375C107.359 95.3631 110.668 93.3437 114.654 92.0793C118.626 90.8195 122.487 90.5644 126.238 91.3139C130.003 92.0589 133.363 93.8306 136.317 96.629C139.271 99.4274 141.522 103.267 143.07 108.149ZM132.109 111.626C131.192 108.737 130.007 106.427 128.551 104.695C127.11 102.959 125.462 101.821 123.605 101.281C121.764 100.736 119.774 100.803 117.637 101.481C115.514 102.155 113.849 103.247 112.644 104.758C111.438 106.269 110.74 108.151 110.549 110.406C110.372 112.655 110.742 115.224 111.658 118.113C112.574 121.001 113.753 123.314 115.194 125.05C116.649 126.782 118.305 127.918 120.161 128.458C122.017 128.998 124.007 128.931 126.13 128.257C128.268 127.579 129.932 126.487 131.123 124.981C132.329 123.47 133.02 121.589 133.196 119.34C133.387 117.086 133.025 114.514 132.109 111.626ZM156.368 128.346L142.294 83.9795L173.23 74.1668L175.992 82.8755L155.78 89.2868L158.666 98.3854L177.297 92.4758L180.066 101.206L161.436 107.116L164.329 116.236L184.541 109.825L187.303 118.534L156.368 128.346ZM207.125 112.246L193.052 67.8792L223.338 58.2726L226.1 66.9814L206.538 73.1865L209.424 82.2852L227.058 76.6916L229.828 85.422L212.193 91.0156L217.849 108.845L207.125 112.246ZM246.867 99.6401L235.342 103.296L236.238 54.1806L250.515 49.6521L279.557 89.2708L268.032 92.9265L247.085 63.0432L246.738 63.1531L246.867 99.6401ZM239.79 82.6672L263.88 75.0259L266.464 83.1714L242.374 90.8127L239.79 82.6672ZM308.021 31.4113L322.094 75.7783L312.995 78.6644L287.217 58.6585L286.935 58.7478L295.058 84.3541L284.334 87.7556L270.261 43.3886L279.49 40.4613L305.059 60.4857L305.427 60.3689L297.319 34.8059L308.021 31.4113ZM348.476 34.5299C347.942 33.6979 347.327 33.0109 346.63 32.4689C345.929 31.9124 345.154 31.4985 344.305 31.2274C343.456 30.9562 342.545 30.8399 341.572 30.8784C340.594 30.9025 339.571 31.084 338.502 31.423C336.35 32.1056 334.652 33.2165 333.408 34.7557C332.178 36.2903 331.453 38.1893 331.233 40.4526C331.008 42.7015 331.345 45.2413 332.243 48.072C333.145 50.9171 334.327 53.2129 335.787 54.9593C337.247 56.7056 338.924 57.8586 340.818 58.4181C342.712 58.9776 344.771 58.9047 346.995 58.1992C348.959 57.5762 350.52 56.7316 351.676 55.6655C352.841 54.5804 353.59 53.3335 353.922 51.9247C354.254 50.516 354.166 49.01 353.658 47.4069L355.726 47.013L344.938 50.4351L342.457 42.6146L361.586 36.5469L363.448 42.4177C364.708 46.3894 364.942 50.0586 364.15 53.4253C363.373 56.7874 361.752 59.6939 359.286 62.1449C356.836 64.5913 353.704 66.4192 349.891 67.6286C345.659 68.9709 341.65 69.2335 337.862 68.4163C334.074 67.5991 330.746 65.7776 327.878 62.9517C325.006 60.1113 322.828 56.3515 321.344 51.6722C320.19 48.0327 319.707 44.633 319.897 41.4732C320.082 38.2989 320.831 35.4227 322.143 32.8447C323.47 30.2621 325.251 28.0599 327.487 26.2381C329.737 24.4117 332.342 23.0289 335.303 22.0898C337.874 21.2743 340.381 20.8844 342.824 20.9201C345.282 20.9512 347.576 21.368 349.706 22.1706C351.851 22.9685 353.751 24.1224 355.406 25.632C357.061 27.1416 358.369 28.96 359.33 31.0872L348.476 34.5299Z" fill="#3C443F"/>
</svg>
