<svg width="153" height="55" viewBox="0 0 153 55" fill="none" xmlns="http://www.w3.org/2000/svg">
<path fill-rule="evenodd" clip-rule="evenodd" d="M19.7408 2.47613C9.85981 14.0801 0.38581 28.4701 0.29081 39.2261C0.25381 43.2731 1.54581 46.8061 4.64481 49.4821C9.10481 53.3361 14.0188 54.6951 18.9088 54.7031C26.0548 54.7131 33.1508 51.8301 38.7068 49.6071C48.0638 45.8651 151.497 0.948133 151.497 0.948133C152.495 0.448133 152.308 -0.174864 151.059 0.136136C150.555 0.262136 38.4558 30.6411 38.4558 30.6411C36.3325 31.2417 34.1384 31.5558 31.9318 31.5751C23.3168 31.6261 15.6508 26.8441 15.7128 16.7671C15.7368 12.8241 16.9438 8.06913 19.7408 2.47613Z" fill="#F7F7F7"/>
</svg>
